<svg width="231" height="231" viewBox="0 0 231 231" fill="none" xmlns="http://www.w3.org/2000/svg">
<path d="M216.22 47.9607L206.768 51.1017C193.528 55.2495 179.777 57.5449 165.907 57.9226C153.444 57.9226 142.03 51.4035 129.941 44.4964C116.759 36.9639 103.131 29.1726 86.8446 29.1726C66.1662 29.1726 43.1087 45.0282 29.3446 56.2839V14.7976H14.9696V201.673C14.9734 205.484 16.4891 209.138 19.1841 211.833C21.8792 214.528 25.5333 216.044 29.3446 216.048H216.22V47.9607ZM29.3446 146.286C42.814 125.313 69.3071 93.8601 86.8446 93.8601C98.6177 93.8601 108.12 101.781 118.182 110.169C129.229 119.369 141.743 129.798 158.72 129.798C174.791 129.027 190.07 122.587 201.845 111.62V147.242C188.592 154.434 173.796 158.313 158.72 158.548C147.187 158.24 135.796 155.932 125.053 151.727C112.852 147.011 99.9227 144.454 86.8446 144.173C65.8068 144.173 43.2309 165.44 29.3446 181.246V146.286ZM86.8446 43.5476C99.3077 43.5476 110.721 50.0667 122.811 56.9739C135.993 64.5064 149.62 72.2976 165.907 72.2976C178.036 72.094 190.099 70.4582 201.845 67.4245V91.2942C196.936 97.0657 179.678 115.423 158.72 115.423C146.946 115.423 137.445 107.502 127.382 99.1142C116.335 89.9142 103.821 79.4851 86.8446 79.4851C65.7421 79.4851 43.2668 103.491 29.3446 121.496V75.3451C40.4565 64.8657 67.1437 43.5476 86.8446 43.5476ZM31.1343 201.673C42.7277 186.644 68.229 158.548 86.8446 158.548C98.377 158.855 109.768 161.163 120.511 165.369C132.712 170.085 145.642 172.641 158.72 172.923C173.612 172.78 188.307 169.498 201.845 163.291V201.673H31.1343Z" fill="white"/>
</svg>
