<svg width="289" height="280" viewBox="0 0 289 280" fill="none" xmlns="http://www.w3.org/2000/svg">
<g clip-path="url(#clip0_423_136)">
<path d="M33.2317 225.371C48.412 243.462 72.5733 235.517 90.6642 220.336C108.754 205.161 120.77 182.744 105.594 164.655C90.4135 146.564 66.2534 154.505 48.1626 169.685C30.0717 184.865 18.0514 207.28 33.2317 225.371Z" stroke="white" stroke-width="8"/>
<path d="M98.3589 170.725C91.7033 170.144 71.1583 175.049 66.3775 191.395C61.5933 207.735 45.6026 218.071 40.4678 219.296C48.6418 221.691 67.6684 214.972 72.4492 198.626C77.2334 182.286 93.2195 171.949 98.3589 170.725Z" fill="white"/>
</g>
<g clip-path="url(#clip1_423_136)">
<path d="M109.054 162.952C124.234 181.042 148.396 173.097 166.486 157.917C184.576 142.741 196.592 120.325 181.416 102.235C166.236 84.1443 142.076 92.0851 123.985 107.265C105.894 122.446 93.8736 144.861 109.054 162.952Z" stroke="white" stroke-width="8"/>
<path d="M174.181 108.306C167.525 107.725 146.981 112.63 142.2 128.976C137.416 145.316 121.425 155.651 116.29 156.876C124.464 159.272 143.491 152.552 148.271 136.206C153.056 119.866 169.042 109.53 174.181 108.306Z" fill="white"/>
</g>
<g clip-path="url(#clip2_423_136)">
<path d="M182.711 99.7737C197.891 117.865 222.053 109.919 240.143 94.7389C258.233 79.5632 270.249 57.1468 255.073 39.0572C239.893 20.9663 215.733 28.9071 197.642 44.0874C179.551 59.2676 167.531 81.6828 182.711 99.7737Z" stroke="white" stroke-width="8"/>
<path d="M247.838 45.1276C241.183 44.547 220.638 49.4519 215.857 65.7978C211.073 82.138 195.082 92.4731 189.947 93.6985C198.121 96.0941 217.148 89.3741 221.928 73.0282C226.713 56.6881 242.699 46.3517 247.838 45.1276Z" fill="white"/>
</g>
<defs>
<clipPath id="clip0_423_136">
<rect width="113.351" height="113.351" fill="white" transform="translate(29.3376 125.597) rotate(15)"/>
</clipPath>
<clipPath id="clip1_423_136">
<rect width="113.351" height="113.351" fill="white" transform="translate(105.16 63.178) rotate(15)"/>
</clipPath>
<clipPath id="clip2_423_136">
<rect width="113.351" height="113.351" fill="white" transform="translate(178.817) rotate(15)"/>
</clipPath>
</defs>
</svg>
