<svg width="234" height="235" viewBox="0 0 234 235" fill="none" xmlns="http://www.w3.org/2000/svg">
<path d="M146.25 108.287C122.167 133.51 98.0753 195.423 98.0753 195.423C98.0753 195.423 63.6578 108.277 29.25 88.1726" stroke="white" stroke-width="12" stroke-linecap="round" stroke-linejoin="round"/>
<path d="M199.836 54.7984L203.989 97.9325C206.68 125.915 185.708 150.826 157.726 153.527C130.27 156.159 105.397 136.094 102.755 108.638C102.126 102.109 102.789 95.5202 104.706 89.2476C106.623 82.975 109.757 77.1415 113.93 72.0803C118.102 67.0191 123.23 62.8294 129.021 59.7504C134.813 56.6714 141.154 54.7634 147.683 54.1354L193.664 49.7089C194.404 49.6377 195.15 49.7128 195.86 49.93C196.571 50.1473 197.231 50.5023 197.805 50.975C198.378 51.4476 198.852 52.0286 199.201 52.6846C199.549 53.3407 199.765 54.0589 199.836 54.7984Z" stroke="white" stroke-width="12" stroke-linecap="round" stroke-linejoin="round"/>
</svg>
