<svg width="500" height="282" viewBox="0 0 500 282" fill="none" xmlns="http://www.w3.org/2000/svg">
<path d="M87.9104 240.268C87.6989 243.135 86.5855 245.454 85.0156 247.654C82.153 251.666 78.06 252.773 73.4532 253.036C68.8774 253.298 64.4449 252.492 60.2497 250.941C56.4182 249.525 52.6693 247.846 49.0659 245.752C44.9811 243.378 41.2108 240.571 37.2154 238.092C36.4672 237.628 35.9617 236.788 35.2755 236.202C32.1871 233.566 28.8431 231.235 26.417 227.855C25.1068 226.03 23.3021 224.566 21.9483 222.767C19.3208 219.274 16.7949 215.7 14.3448 212.08C13.0576 210.178 11.8369 208.188 10.9043 206.095C8.35837 200.381 5.89714 194.654 4.35618 188.52C3.42886 184.829 2.57799 181.16 1.93351 177.41C1.53187 175.074 1.29553 172.723 0.910136 170.406C0.505662 167.975 0.893573 165.534 0.454099 163.187C-0.244905 159.454 0.0760914 155.727 0.0586781 152.003C0.0439678 148.857 0.283633 145.704 0.534094 142.564C0.773653 139.561 0.973861 136.531 1.54778 133.583C2.39537 129.229 3.02677 124.837 3.85271 120.48C5.30725 112.806 7.27895 105.306 9.92274 97.995C12.5741 90.6627 15.6481 83.4953 19.95 76.9378C22.2039 73.5022 24.3361 69.9729 26.7934 66.6894C28.5819 64.2995 30.81 62.2405 32.8466 60.0381C40.3126 51.9644 49.1315 45.779 59.1282 41.2984C63.1023 39.5171 67.2042 38.1104 71.5213 37.2504C74.924 36.5726 78.275 35.6305 81.7667 35.8548C86.5471 36.1618 89.7334 39.4463 90.3295 43.9557C90.944 48.604 89.7926 52.9038 88.8481 57.3117C88.1936 60.3665 87.8346 63.4838 87.2846 66.5627C86.7929 69.3156 86.2388 72.0577 85.6777 74.7975C85.2589 76.843 84.7808 78.8761 84.3368 80.9165C83.6785 83.9414 82.9963 86.9614 82.3821 89.9953C81.8416 92.6655 81.3795 95.3517 80.8846 98.0312C80.3075 101.155 79.7491 104.276 78.9626 107.365C78.2325 110.232 77.9823 113.218 77.4188 116.133C76.6833 119.936 75.8283 123.717 75.0608 127.514C74.5061 130.259 74.0344 133.02 73.4819 135.764C72.8704 138.802 72.1632 141.821 71.5846 144.864C71.1604 147.096 70.9063 149.36 70.5204 151.6C70.2174 153.359 69.8406 155.105 69.4755 156.852C69.0165 159.05 68.5246 161.241 68.0683 163.439C67.721 165.112 67.3901 166.789 67.0954 168.472C67.0466 168.751 67.221 169.069 67.2923 169.37C67.4666 169.217 67.6282 169.045 67.817 168.913C73.2348 165.121 78.6391 161.309 84.0819 157.553C86.9481 155.575 89.8826 153.697 92.7851 151.772C93.3568 151.393 93.7216 151.516 93.691 152.226C93.657 153.015 93.5322 153.801 93.4284 154.586C93.3775 154.971 93.2336 155.348 93.2187 155.731C93.0422 160.279 93.0922 164.849 92.6411 169.369C92.3588 172.196 92.5848 175.058 92.1299 177.812C91.6736 180.575 92.0807 183.326 91.6796 186.024C91.2233 189.094 91.5921 192.204 91.1348 195.209C90.7518 197.726 91.0784 200.227 90.7014 202.68C90.1924 205.994 90.6016 209.351 90.141 212.607C89.8084 214.958 90.0959 217.297 89.7151 219.583C89.2044 222.649 89.6139 225.76 89.1656 228.768C88.8033 231.2 88.9577 233.596 88.7504 235.996C88.63 237.389 88.2802 238.763 87.9104 240.268Z" fill="white"/>
<path d="M102.579 215.41C102.986 212.776 103.378 210.386 103.803 208.003C104.199 205.781 104.635 203.567 105.043 201.347C105.563 198.512 106.05 195.67 106.593 192.839C107.031 190.556 107.524 188.282 108.005 186.007C108.629 183.053 109.304 180.109 109.884 177.146C110.305 174.998 110.553 172.816 110.974 170.669C111.555 167.706 112.253 164.767 112.851 161.808C113.406 159.063 113.892 156.304 114.413 153.552C114.99 150.507 115.353 147.434 116.286 144.443C116.931 142.372 116.961 140.116 117.386 137.966C118.092 134.397 118.912 130.85 119.645 127.286C119.928 125.908 120.078 124.503 120.338 123.119C120.538 122.049 120.814 120.994 121.056 119.932C120.148 120.518 119.211 121.065 118.336 121.697C113.583 125.122 108.871 128.605 104.092 131.992C101.824 133.599 99.4355 135.034 97.1081 136.558C96.5564 136.919 96.129 136.863 96.1859 136.146C96.442 132.921 95.5595 129.642 96.6453 126.451C96.7709 126.082 96.6592 125.633 96.6628 125.221C96.8266 106.245 96.8246 87.2663 97.2628 68.2974C97.3849 63.0115 97.3535 57.7033 97.7111 52.4284C97.9775 48.4986 98.9573 44.7193 101.24 41.2896C103.439 37.9857 106.639 36.3925 110.136 35.3962C115.243 33.9413 120.279 34.9249 125.08 36.9222C131.024 39.395 136.268 43.0342 141.477 46.806C147.632 51.2625 152.833 56.6956 158.019 62.1366C160.882 65.1398 163.113 68.7418 165.7 72.0175C170.606 78.23 173.994 85.3332 177.349 92.4107C179.429 96.7977 180.948 101.48 182.406 106.128C183.785 110.524 184.899 115.018 185.855 119.528C186.461 122.383 186.427 125.368 186.92 128.253C188.145 135.423 187.868 142.646 187.867 149.86C187.867 153.129 187.438 156.363 186.921 159.594C186.458 162.486 186.281 165.423 185.89 168.329C185.652 170.1 185.319 171.866 184.903 173.605C184.312 176.068 183.629 178.51 182.943 180.95C181.826 184.923 180.683 188.876 179.229 192.758C177.299 197.913 175.162 202.948 172.601 207.814C170.031 212.699 167.01 217.266 163.709 221.695C160.73 225.691 157.319 229.254 153.671 232.557C150.598 235.338 147.227 237.855 143.729 240.081C137.908 243.787 131.49 246.283 124.837 248.013C119.496 249.403 113.961 249.268 108.499 248.981C105.576 248.828 103.224 247.111 101.6 244.604C99.3096 241.068 98.7046 237.091 99.1836 233.027C99.5633 229.804 100.497 226.651 101.082 223.449C101.504 221.129 101.745 218.777 102.103 216.445C102.146 216.164 102.415 215.919 102.579 215.41Z" fill="white"/>
<path d="M195.768 166.434C195.768 162.56 195.799 158.933 195.751 155.307C195.735 154.073 196.174 153.555 197.43 153.559C205.974 153.584 214.529 153.304 223.057 153.681C227.592 153.881 232.206 154.274 236.603 155.991C241.114 157.752 244.925 160.239 247.534 164.383C249.48 167.472 250.542 170.837 250.501 174.524C250.469 177.391 250.608 180.238 249.541 183.027C247.458 188.473 243.6 192.128 238.461 194.555C237.713 194.908 236.805 194.909 235.993 195.146C235.701 195.231 235.471 195.53 235.213 195.731C235.462 195.86 235.724 196.119 235.958 196.097C239.307 195.774 242.204 197.077 245.042 198.592C247.865 200.1 249.977 202.392 251.699 205.019C254.53 209.337 255.388 214.237 254.862 219.24C254.392 223.709 252.937 227.87 250.034 231.577C246.562 236.012 241.883 238.418 236.969 240.533C235.369 241.221 233.512 241.368 231.752 241.614C223.71 242.737 215.622 241.867 207.558 242.11C204.767 242.194 201.972 242.123 199.179 242.123C198.768 242.123 198.353 242.084 197.947 242.13C195.775 242.378 195.769 242.385 195.769 240.123C195.768 215.643 195.768 191.162 195.768 166.434ZM205.136 203.784C205.136 213.259 205.131 222.735 205.141 232.21C205.143 233.92 205.344 234.22 206.78 234.193C213.693 234.062 220.606 233.916 227.516 233.68C228.805 233.636 230.077 233.147 231.361 232.881C233.784 232.381 235.97 231.296 238.084 230.073C240.699 228.562 242.817 226.375 243.903 223.645C245.474 219.695 245.559 215.553 244.292 211.36C242.689 206.053 238.925 203.224 233.982 201.561C230.986 200.553 227.838 200.259 224.739 200.135C219.245 199.916 213.737 200.07 208.235 200.077C207.26 200.078 205.785 199.752 205.428 200.236C204.908 200.94 205.194 202.242 205.136 203.784ZM221.654 192.653C222.735 192.488 223.814 192.192 224.897 192.183C228.413 192.153 231.569 191.124 234.516 189.211C236.914 187.654 238.497 185.513 239.66 182.961C240.611 180.874 240.69 178.69 240.652 176.451C240.571 171.742 238.352 168.245 234.752 165.436C231.388 162.812 227.34 162.283 223.369 162.062C217.724 161.747 212.049 162.018 206.387 161.951C205.236 161.938 205.117 162.386 205.12 163.342C205.148 172.481 205.129 181.62 205.143 190.759C205.146 192.487 205.324 192.643 207.129 192.648C211.806 192.663 216.483 192.653 221.654 192.653Z" fill="white"/>
<path d="M310.159 154.561C314.932 155.098 318.978 156.871 322.676 159.466C326.965 162.477 329.353 166.855 330.249 171.823C330.722 174.443 331.09 177.178 330.544 180.079C329.946 183.252 329.258 186.287 327.736 189.088C324.929 194.251 320.421 197.327 314.946 199.06C313.406 199.548 311.783 199.8 310.182 200.058C308.628 200.308 308.388 200.639 309.181 202.004C310.535 204.332 311.94 206.63 313.325 208.94C315.067 211.843 316.792 214.758 318.559 217.646C321.214 221.987 323.927 226.293 326.564 230.646C328.754 234.262 330.875 237.92 333.014 241.568C333.16 241.817 333.205 242.126 333.296 242.408C332.997 242.478 332.642 242.689 332.406 242.597C329.886 241.608 327.269 242.172 324.713 242.188C322.932 242.2 321.976 241.581 321.137 240.08C319.447 237.056 317.539 234.155 315.774 231.172C313.938 228.067 312.186 224.912 310.357 221.802C308.408 218.485 306.385 215.212 304.445 211.89C302.665 208.844 300.955 205.756 299.205 202.692C298.657 201.731 297.935 201.05 296.717 201.056C292.855 201.076 288.993 201.091 285.132 201.048C283.801 201.033 283.485 201.674 283.517 202.863C283.575 205.005 283.534 207.15 283.534 209.293C283.534 219.681 283.536 230.069 283.531 240.457C283.53 242.107 283.514 242.074 281.846 242.132C279.753 242.205 277.659 242.437 275.572 242.372C275.088 242.357 274.526 241.475 274.204 240.88C273.997 240.498 274.165 239.912 274.165 239.417C274.165 211.881 274.165 184.345 274.165 156.81C274.165 156.315 274.124 155.816 274.173 155.326C274.298 154.092 274.847 153.576 276.055 153.576C285.258 153.569 294.461 153.556 303.664 153.594C304.747 153.598 305.832 153.884 306.91 154.072C307.91 154.245 309.048 153.568 310.159 154.561ZM283.534 167.671C283.534 175.49 283.544 183.31 283.521 191.129C283.518 192.114 283.44 192.725 284.867 192.701C291.346 192.592 297.836 192.843 304.305 192.563C307.009 192.446 309.763 191.578 312.325 190.604C314.748 189.683 317.084 188.174 318.477 185.944C320.817 182.198 321.514 177.876 320.425 173.654C319.195 168.883 316.031 165.658 311.228 163.878C308.088 162.714 304.859 162.295 301.671 162.083C296.199 161.718 290.685 162 285.189 161.968C283.928 161.961 283.456 162.492 283.521 163.72C283.581 164.869 283.534 166.024 283.534 167.671Z" fill="white"/>
<path d="M499.989 169.402C499.989 192.807 499.989 215.964 499.989 239.122C499.989 239.369 499.99 239.616 499.988 239.863C499.969 242.108 499.969 242.112 497.619 242.122C496.223 242.129 494.826 242.102 493.43 242.132C492.636 242.148 491.272 242.513 491.155 242.261C490.745 241.373 490.641 240.286 490.639 239.274C490.61 227.077 490.621 214.881 490.62 202.684C490.62 200.575 490.616 200.57 488.642 200.569C474.021 200.568 459.401 200.568 444.78 200.569C442.798 200.57 442.794 200.575 442.794 202.676C442.793 215.037 442.793 227.399 442.793 239.76C442.793 242.124 442.788 242.038 440.324 242.151C438.419 242.239 436.461 241.64 434.585 242.562C434.394 242.656 433.675 242.042 433.467 241.624C433.271 241.227 433.425 240.656 433.425 240.161C433.425 212.307 433.425 184.452 433.425 156.597C433.425 156.103 433.307 155.571 433.45 155.122C433.722 154.267 434.003 153.443 435.281 153.538C437.078 153.672 438.893 153.559 440.699 153.575C442.723 153.593 442.777 153.638 442.789 155.614C442.806 158.581 442.793 161.548 442.793 164.515C442.793 173.003 442.788 181.491 442.797 189.979C442.799 192.136 442.82 192.155 444.997 192.156C459.453 192.161 473.909 192.161 488.366 192.156C490.605 192.155 490.617 192.139 490.618 189.783C490.623 178.658 490.62 167.533 490.62 156.407C490.62 155.83 490.484 155.206 490.662 154.691C490.813 154.253 491.313 153.636 491.68 153.621C494.058 153.525 496.442 153.532 498.823 153.59C499.874 153.616 500.009 154.414 500 155.31C499.97 158.194 499.989 161.079 499.989 163.963C499.989 165.694 499.989 167.424 499.989 169.402Z" fill="white"/>
<path d="M272.193 92.7237C272.193 90.2507 272.153 88.0242 272.201 85.7997C272.303 81.1545 273.553 76.7599 275.145 72.4367C277.494 66.0605 281.453 60.7998 286.51 56.409C290.547 52.903 295.26 50.5004 300.302 48.6577C306.64 46.3418 313.206 46.3738 319.701 46.8328C324.798 47.193 329.816 48.7211 334.365 51.2059C339.152 53.8211 343.447 57.0426 346.916 61.4386C349.113 64.2224 350.965 67.1492 352.525 70.269C353.962 73.1428 354.752 76.2774 355.542 79.4012C356.727 84.083 356.887 88.8795 356.411 93.5769C355.74 100.191 353.979 106.536 350.22 112.258C348.205 115.324 346.234 118.384 343.505 120.809C338.422 125.325 332.654 128.528 326.027 130.412C320.49 131.986 314.93 131.996 309.366 131.711C305.401 131.508 301.513 130.328 297.765 128.849C292.129 126.623 287.259 123.258 283.2 118.8C280.214 115.521 277.701 111.941 275.911 107.75C274.606 104.695 273.759 101.543 272.781 98.4223C272.245 96.7124 272.367 94.7949 272.193 92.7237ZM292.902 61.8048C289.061 65.2953 285.981 69.3473 284.039 74.1907C282.291 78.5479 281.24 83.0941 281.108 87.7901C281.043 90.1051 281.367 92.4345 281.572 94.7522C281.698 96.1637 281.682 97.66 282.168 98.9527C283.344 102.084 284.183 105.36 285.989 108.242C288.372 112.046 291.126 115.481 294.796 118.142C300.657 122.392 307.255 124.254 314.398 124.359C315.641 124.377 316.885 123.959 318.136 123.907C322.717 123.717 326.85 122.262 330.813 119.969C335.411 117.309 338.961 113.807 341.855 109.291C345.493 103.613 346.864 97.386 347.591 90.9032C347.794 89.0976 347.455 87.2536 347.235 85.4153C346.807 81.8326 346.094 78.4379 344.748 75.05C342.554 69.5261 339.409 64.9316 334.76 61.1605C328.923 56.4266 322.248 54.4956 314.969 54.1735C313.159 54.0934 311.331 54.517 309.507 54.6208C306.061 54.8171 302.915 56.0003 299.785 57.3421C297.332 58.3938 295.32 60.0894 292.902 61.8048Z" fill="white"/>
<path d="M498.016 95.1972C498.059 98.6241 496.952 101.574 495.869 104.444C494.009 109.374 491.094 113.747 487.365 117.458C482.394 122.406 476.397 125.745 469.729 127.823C467.292 128.582 464.787 129.056 462.225 129.388C455.147 130.307 448.06 129.595 440.982 129.807C437.371 129.916 433.753 129.78 430.141 129.855C429.108 129.877 428.963 129.523 428.968 128.613C429.004 122.02 428.987 115.426 428.987 108.833C428.987 89.6306 428.987 70.4279 428.987 51.2252C428.987 50.8132 429.038 50.3935 428.978 49.9905C428.815 48.9076 429.287 48.6701 430.307 48.6738C440.246 48.7095 450.191 48.4921 460.122 48.7867C464.638 48.9207 469.091 50.2117 473.34 51.9014C478.917 54.1192 483.894 57.3266 487.992 61.7172C490.215 64.0991 492.112 66.7648 493.681 69.7078C495.137 72.4411 496.332 75.2067 497.094 78.1887C497.378 79.3028 497.906 80.3922 497.98 81.5157C498.238 85.3971 498.369 89.2878 498.484 93.1769C498.502 93.7627 498.181 94.3586 498.016 95.1972ZM461.037 56.8579C459.839 56.7754 458.638 56.7236 457.444 56.6021C456.194 56.4749 454.952 56.1536 453.704 56.1385C449.024 56.0819 444.341 56.1783 439.661 56.0876C437.542 56.0465 437.34 56.5536 437.344 58.4548C437.385 78.9733 437.368 99.492 437.371 120.011C437.372 122.397 437.384 122.434 439.85 122.398C445.616 122.315 451.379 122.588 457.147 121.975C460.195 121.652 463.188 121.279 466.141 120.441C474.663 118.023 481.272 113.012 485.598 105.329C488.538 100.107 489.559 94.2081 489.58 88.2276C489.588 86.0581 489.053 83.8714 488.633 81.7187C487.656 76.7122 485.575 72.173 482.263 68.3128C479.253 64.8041 475.666 61.9753 471.399 60.0581C468.154 58.6001 464.932 57.1376 461.037 56.8579Z" fill="white"/>
<path d="M355.891 235.816C352.359 231.89 350.032 227.488 348.629 222.591C348.226 221.183 347.843 219.751 347.66 218.303C347.388 216.16 347.318 213.992 347.132 211.837C347.04 210.764 346.774 209.695 346.78 208.625C346.787 207.413 347.12 206.203 347.122 204.993C347.147 189.17 347.139 173.348 347.139 157.526C347.139 156.949 347.331 156.265 347.087 155.824C346.791 155.289 346.327 154.912 347.033 154.438C347.536 154.1 348.093 153.639 348.646 153.611C350.612 153.511 352.586 153.586 354.557 153.566C355.561 153.556 356.053 153.996 356.017 155.018C356 155.511 356.014 156.006 356.014 156.501C356.014 174.63 355.95 192.76 356.052 210.889C356.084 216.546 357.45 222.001 360.492 226.82C363.156 231.038 367.146 233.739 371.889 235.17C375.715 236.325 379.582 236.467 383.603 235.777C387.696 235.075 391.287 233.477 394.425 230.952C396.882 228.976 398.704 226.293 399.852 223.352C401.665 218.709 402.431 213.86 402.401 208.819C402.299 191.35 402.362 173.879 402.362 156.409C402.362 155.832 402.226 155.208 402.404 154.692C402.554 154.254 403.054 153.636 403.42 153.621C405.798 153.525 408.184 153.514 410.561 153.628C410.969 153.647 411.466 154.342 411.692 154.832C411.88 155.239 411.73 155.803 411.73 156.297C411.73 173.768 411.854 191.239 411.661 208.708C411.596 214.648 410.986 220.662 408.722 226.247C406.788 231.018 403.991 235.274 399.592 238.239C398.296 239.113 397.156 240.251 395.796 240.995C392.597 242.744 389.118 243.587 385.512 244.165C382.444 244.657 379.391 244.698 376.345 244.553C372.003 244.346 367.71 243.532 363.792 241.582C360.922 240.154 358.283 238.27 355.891 235.816Z" fill="white"/>
<path d="M200.699 88.2714C200.914 95.0471 201.992 101.405 205.169 107.179C208.165 112.623 212.105 117.141 217.781 120.138C220.944 121.808 224.213 123.276 227.599 123.729C230.897 124.17 234.257 124.728 237.798 124.058C241.411 123.375 244.837 122.488 248.123 120.92C251.327 119.39 253.614 116.743 255.877 114.162C257.552 112.252 257.348 112.115 259.209 113.568C260.501 114.578 261.771 115.672 263.211 116.416C264.353 117.007 263.864 117.514 263.445 118.054C258.224 124.783 251.366 128.802 243.149 130.88C238.271 132.113 233.35 132.116 228.519 131.69C221.16 131.042 214.374 128.159 208.426 123.806C205.358 121.56 202.624 118.676 200.28 115.658C197.178 111.663 194.833 107.134 193.595 102.147C193.072 100.04 192.86 97.8515 192.287 95.7603C191.475 92.7896 191.722 89.7749 191.878 86.8113C192.26 79.5293 194.078 72.668 198.014 66.3724C199.922 63.32 201.892 60.3757 204.555 57.9984C206.719 56.0656 209.045 54.2738 211.472 52.6862C215.667 49.9426 220.398 48.3303 225.236 47.2753C229.767 46.2874 234.483 46.3649 239.055 46.8193C243.763 47.2872 248.265 48.8981 252.523 51.1369C256.062 52.9973 258.836 55.7089 261.515 58.5616C261.922 58.9952 262.328 59.5262 261.178 60.1589C259.336 61.1725 257.758 62.6952 256.143 64.09C255.318 64.8034 254.756 64.641 254.089 63.9376C253.081 62.873 252.028 61.85 250.989 60.8144C247.642 57.4773 243.404 55.7313 238.955 54.7947C235.922 54.1563 232.793 53.9433 229.529 54.4874C225.821 55.1056 222.245 55.9321 218.977 57.6531C215.084 59.7033 211.652 62.3347 208.797 65.884C206.212 69.099 204.361 72.5904 203.018 76.3717C202.064 79.0581 201.202 81.8281 201.167 84.7644C201.154 85.8526 200.863 86.9376 200.699 88.2714Z" fill="white"/>
<path d="M372.901 127.229C372.778 113.184 372.76 99.2633 372.8 85.3423C372.805 83.5156 373.416 81.6553 373.218 79.8693C372.307 71.622 372.98 63.36 372.808 55.1087C372.769 53.2043 373.084 51.2894 373.299 49.3865C373.327 49.1342 373.727 48.7312 373.962 48.7255C376.095 48.6739 378.231 48.6892 380.365 48.6982C381.252 48.7019 381.69 49.1532 381.657 50.0618C381.636 50.6376 381.653 51.2149 381.653 51.7915C381.653 74.2794 381.653 96.7672 381.653 119.255C381.653 119.585 381.65 119.914 381.654 120.244C381.681 122.385 381.681 122.402 383.872 122.403C394.792 122.409 405.711 122.406 416.63 122.406C417.205 122.406 417.785 122.453 418.353 122.394C419.064 122.32 419.144 122.678 419.135 123.259C419.11 125.071 419.043 126.889 419.157 128.694C419.226 129.793 418.746 129.847 417.892 129.841C413.376 129.81 408.861 129.826 404.345 129.826C394.657 129.826 384.969 129.827 375.282 129.826C373.368 129.825 373.375 129.82 373.262 127.992C373.248 127.775 373.107 127.566 372.901 127.229Z" fill="white"/>
</svg>
