<?xml version="1.0" encoding="utf-8"?><!DOCTYPE svg PUBLIC "-//W3C//DTD SVG 1.1//EN" "http://www.w3.org/Graphics/SVG/1.1/DTD/svg11.dtd"><svg version="1.1" id="Contours" xmlns="http://www.w3.org/2000/svg" xmlns:xlink="http://www.w3.org/1999/xlink" x="0px" y="0px" width="1822.236938px" height="1822.236938px" viewBox="0.000003 0.000007 1822.236938 2114.328857" enable-background="new 0 0 1822.236938 1822.236938" xml:space="preserve" stroke="black" fill="none" stroke-linecap='round' stroke-linejoin='round'><path class="selected"  fill="#000000" opacity="1.000000" stroke="none" 
 	d="
M946.154716 213.823046 C947.572766 158.079873 950.650654 97.917780 985.653381 54.511314 C1019.715362 12.271473 1078.367648 -4.368527 1132.367490 0.964338 C1186.367332 6.297202 1236.626404 30.642694 1283.296307 58.325588 C1511.452017 193.659336 1681.516792 419.129265 1762.993280 671.580905 C1844.469769 924.032544 1839.439815 1201.303504 1763.056546 1455.342565 C1717.756760 1606.002738 1646.577769 1751.194093 1538.918877 1865.911660 C1431.259985 1980.629228 1284.721318 2062.944879 1127.883084 2075.286894 C1072.520275 2079.643540 1008.269405 2070.886950 977.594112 2024.593892 C951.834941 1985.719923 959.123557 1934.554545 967.467889 1888.673258 C1032.049473 1533.571796 1100.807740 1179.229946 1173.723682 825.745731 C1093.657864 879.970600 1013.592046 934.195470 933.526229 988.420339 C935.377826 730.189979 939.587558 471.976527 946.154721 213.823046 z"/><path class="selected"  fill="#000000" opacity="1.000000" stroke="none" 
 	d="
M796.749536 2087.267147 C765.353281 2110.849744 723.708109 2116.312114 684.525075 2113.752119 C614.018573 2109.145627 546.924070 2081.467453 484.986237 2047.466108 C313.036283 1953.072589 169.662945 1804.912456 88.504806 1626.333960 C-0.990782 1429.409943 -12.738109 1205.048346 10.105719 989.951420 C33.265257 771.881774 92.338209 553.588408 214.369730 371.382366 C336.401250 189.176324 527.003499 46.204676 743.855244 13.554187 C776.211677 8.682408 811.900927 6.965196 838.897974 25.453897 C885.528482 57.388415 879.766602 126.718350 868.786487 182.158899 C794.630332 556.585616 720.474221 931.012325 646.318110 1305.439034 C730.612148 1244.096572 817.217175 1185.929861 905.887786 1131.103723 C890.734200 1390.912395 875.580614 1650.721066 860.427028 1910.529738 C856.656020 1975.183780 848.532630 2048.371430 796.749536 2087.267147 z"/></svg>