<?xml version="1.0" encoding="utf-8"?><!DOCTYPE svg PUBLIC "-//W3C//DTD SVG 1.1//EN" "http://www.w3.org/Graphics/SVG/1.1/DTD/svg11.dtd"><svg version="1.1" id="Contours" xmlns="http://www.w3.org/2000/svg" xmlns:xlink="http://www.w3.org/1999/xlink" x="0px" y="0px" width="2028.134521px" height="2028.134521px" viewBox="0.000000 -0.000004 2028.134521 882.891663" enable-background="new 0 0 2028.134521 2028.134521" xml:space="preserve" stroke="black" fill="none" stroke-linecap='round' stroke-linejoin='round'><path class="selected"  fill="#000000" opacity="1.000000" stroke="none" 
 	d="
M356.588402 831.075383 C355.730278 842.662541 351.214012 852.040715 344.846214 860.935734 C333.234581 877.155461 316.632408 881.628483 297.945946 882.694523 C279.385338 883.753483 261.405723 880.492253 244.389000 874.223088 C228.847435 868.497258 213.640800 861.708805 199.024681 853.243473 C182.455375 843.647160 167.162132 832.297795 150.955650 822.276799 C147.920585 820.400090 145.870460 817.002629 143.086937 814.634953 C130.559563 803.979069 116.995506 794.555363 107.154457 780.890446 C101.839821 773.510807 94.519539 767.593815 89.028389 760.319279 C78.370292 746.199528 68.124641 731.750187 58.186241 717.112858 C52.965263 709.423283 48.013496 701.378971 44.230873 692.917790 C33.903816 669.817570 23.920402 646.661808 17.669823 621.865666 C13.908386 606.944035 10.457023 592.107609 7.842850 576.950138 C6.213661 567.503849 5.255020 558.000798 3.691757 548.634098 C2.051102 538.803776 3.624573 528.934513 1.841949 519.445988 C-0.993401 504.354069 0.308647 489.289250 0.238014 474.232487 C0.178345 461.513493 1.150490 448.766667 2.166427 436.072209 C3.138145 423.930363 3.950241 411.682804 6.278213 399.764225 C9.716270 382.162297 12.277397 364.404362 15.627632 346.787907 C21.527641 315.764225 29.525398 285.444645 40.249306 255.886235 C51.003944 226.243107 63.472969 197.266301 80.922584 170.755375 C90.064873 156.865666 98.713875 142.597355 108.681267 129.322636 C115.935829 119.660954 124.973793 111.336491 133.234749 102.432682 C163.518547 69.791752 199.290672 44.785405 239.839775 26.670842 C255.960014 19.469426 272.598442 13.782353 290.109825 10.305668 C303.911918 7.565373 317.504570 3.756718 331.667564 4.663395 C351.058128 5.904545 363.982841 19.183293 366.400932 37.414189 C368.893425 56.206181 364.222771 73.589787 360.391899 91.410099 C357.737022 103.760136 356.280662 116.363224 354.049919 128.810429 C352.055321 139.939946 349.807701 151.026066 347.531883 162.102604 C345.832847 170.372013 343.893547 178.591862 342.092583 186.840641 C339.422600 199.069706 336.655144 211.279362 334.163994 223.544987 C331.971458 234.340092 330.097130 245.200016 328.089561 256.032597 C325.748894 268.662541 323.483879 281.278019 320.293419 293.766545 C317.332237 305.357731 316.317375 317.432316 314.031578 329.213688 C311.047966 344.591496 307.579826 359.874577 304.466606 375.228215 C302.216942 386.322941 300.303459 397.485783 298.062279 408.582463 C295.581993 420.862614 292.713188 433.066471 290.366478 445.370915 C288.645531 454.394230 287.614860 463.546818 286.049705 472.602726 C284.820823 479.712956 283.292290 486.773259 281.811516 493.837834 C279.949364 502.721867 277.954094 511.578312 276.103386 520.464787 C274.694603 527.229313 273.352379 534.009831 272.157066 540.814396 C271.958916 541.942204 272.666527 543.229191 272.955589 544.442570 C273.662651 543.824040 274.318352 543.132023 275.084190 542.597844 C297.059929 527.266056 318.981468 511.855046 341.058647 496.670597 C352.684837 488.674260 364.588066 481.080998 376.361229 473.298161 C378.680107 471.765202 380.159935 472.263127 380.035911 475.132267 C379.897972 478.323063 379.391685 481.501286 378.970604 484.674992 C378.764274 486.229802 378.180443 487.753971 378.120048 489.305729 C377.404198 507.692204 377.607048 526.166691 375.777061 544.438664 C374.632225 555.869450 375.548698 567.441471 373.703819 578.573796 C371.852867 589.742741 373.503898 600.865544 371.877220 611.773869 C370.026268 624.186345 371.522331 636.759831 369.667381 648.908390 C368.113884 659.082829 369.438408 669.194401 367.909355 679.113224 C365.844536 692.507756 367.504417 706.080387 365.636223 719.243596 C364.287163 728.749089 365.453026 738.206608 363.908775 747.446110 C361.836967 759.841862 363.498131 772.418644 361.679680 784.582341 C360.210014 794.413273 360.836418 804.099064 359.995323 813.803776 C359.507194 819.435978 358.088371 824.987492 356.588402 831.075383 z"/><path class="selected"  fill="#000000" opacity="1.000000" stroke="none" 
 	d="
M416.088402 730.575383 C417.737388 719.926457 419.329063 710.267155 421.052086 700.631535 C422.658226 691.649723 424.429466 682.697697 426.082054 673.724064 C428.193199 662.260807 430.168846 650.771672 432.371116 639.326115 C434.147484 630.094059 436.145164 620.903874 438.095360 611.705876 C440.627830 599.762272 443.366417 587.860173 445.719688 575.881779 C447.425621 567.198185 448.432701 558.377140 450.141014 549.694035 C452.497215 537.717350 455.329307 525.834904 457.754661 513.870915 C460.004478 502.772892 461.976829 491.618596 464.091331 480.492985 C466.430565 468.185246 467.904747 455.760929 471.685448 443.668278 C474.303123 435.295597 474.426658 426.174382 476.149864 417.483830 C479.011253 403.053166 482.339317 388.715519 485.311302 374.305973 C486.460655 368.733586 487.070457 363.051945 488.122337 357.456974 C488.935142 353.133366 490.053856 348.867131 491.036583 344.575383 C487.351707 346.944157 483.553795 349.155583 480.000816 351.708073 C460.723594 365.556950 441.609947 379.635929 422.224510 393.330632 C413.026146 399.828679 403.336998 405.630925 393.896568 411.788762 C391.658806 413.248356 389.925224 413.022648 390.155845 410.126530 C391.194511 397.085637 387.615043 383.830754 392.019310 370.931218 C392.528923 369.438664 392.075798 367.621769 392.090233 365.955387 C392.754814 289.241520 392.746788 212.511967 394.524010 135.823735 C395.019249 114.453495 394.891807 92.993290 396.342399 71.667729 C397.423057 55.780339 401.397453 40.501286 410.657310 26.635197 C419.577110 13.278386 432.555565 6.837162 446.741234 2.809452 C467.458336 -3.072689 487.882835 0.904057 507.357139 8.978764 C531.467735 18.975773 552.740318 33.688298 573.870140 48.937138 C598.835655 66.954106 619.932884 88.919438 640.968162 110.916386 C652.579002 123.058049 661.630821 137.620121 672.123497 150.863530 C692.022789 175.979679 705.766746 204.696782 719.375816 233.309697 C727.811607 251.045781 733.973839 269.974064 739.889061 288.766179 C745.483360 306.538639 749.999412 324.709294 753.878807 342.941227 C756.334373 354.481877 756.198631 366.550969 758.198082 378.216252 C763.166344 407.202214 762.043907 436.402043 762.039940 465.566716 C762.038109 478.785710 760.300804 491.858708 758.202843 504.923039 C756.325340 516.615055 755.605186 528.488346 754.020347 540.233830 C753.053978 547.396183 751.704063 554.536930 750.014488 561.564396 C747.619896 571.524235 744.847862 581.397160 742.066978 591.259221 C737.536949 607.323552 732.897178 623.304753 727.000694 638.999211 C719.170921 659.839054 710.503319 680.195378 700.117454 699.867375 C689.691490 719.615178 677.437523 738.079655 664.047874 755.984806 C651.965477 772.141911 638.128013 786.546208 623.330833 799.897526 C610.867332 811.143254 597.190452 821.318669 583.004539 830.319035 C559.393944 845.298771 533.359947 855.389225 506.373924 862.386296 C484.706871 868.004216 462.256798 867.459782 440.102989 866.299748 C428.244713 865.678776 418.703270 858.737492 412.117149 848.603215 C402.826469 834.307194 400.372520 818.228825 402.315239 801.797429 C403.855369 788.770573 407.644554 776.024113 410.013786 763.075993 C411.729454 753.699528 412.703880 744.189030 414.155418 734.760685 C414.329979 733.626652 415.421776 732.633732 416.088402 730.575383 z"/><path class="selected"  fill="#000000" opacity="1.000000" stroke="none" 
 	d="
M794.088402 532.575383 C794.088402 516.913151 794.214012 502.249211 794.018883 487.589665 C793.952537 482.601262 795.732994 480.507023 800.829063 480.522038 C835.485008 480.624089 870.189110 479.490788 904.778221 481.014836 C923.175438 481.825383 941.890648 483.412541 959.723900 490.353825 C978.022606 497.476506 993.481590 507.530949 1004.064476 524.281071 C1011.957176 536.772892 1016.265037 550.377018 1016.099754 565.281559 C1015.971214 576.872013 1016.534935 588.383366 1012.206932 599.659367 C1003.756004 621.676945 988.108299 636.451359 967.261741 646.261540 C964.226707 647.690007 960.546776 647.693913 957.250633 648.650822 C956.067161 648.994572 955.135277 650.204777 954.088402 651.019352 C955.097923 651.538029 956.158348 652.586857 957.109276 652.495549 C970.692772 651.191227 982.446068 656.457585 993.956688 662.586003 C1005.405540 668.681706 1013.973656 677.945744 1020.959984 688.567448 C1032.442894 706.025822 1035.922752 725.833683 1033.787987 746.060978 C1031.880882 764.129948 1025.978782 780.949406 1014.205101 795.939274 C1000.122948 813.868107 981.144188 823.596135 961.209495 832.144596 C954.718284 834.928166 947.186180 835.521061 940.046409 836.515202 C907.427818 841.057194 874.620445 837.539738 841.911461 838.521305 C830.591698 838.861027 819.253258 838.575383 807.923302 838.575383 C806.257164 838.575383 804.572777 838.415348 802.927879 838.602238 C794.116295 839.602604 794.093040 839.632389 794.092430 830.488346 C794.085899 731.517399 794.088402 632.546330 794.088402 532.575383 M832.088402 683.575383 C832.088402 721.882267 832.068443 760.189152 832.106773 798.496037 C832.113670 805.411320 832.930015 806.623112 838.756309 806.513249 C866.796531 805.984806 894.837913 805.393254 922.865806 804.440007 C928.095115 804.262150 933.255760 802.283757 938.463524 801.211369 C948.290672 799.187931 957.156639 794.799870 965.733543 789.858830 C976.340233 783.748600 984.932884 774.904728 989.335350 763.871403 C995.707786 747.900944 996.055321 731.156681 990.915550 714.203068 C984.411766 692.749943 969.143089 681.311589 949.093529 674.588444 C936.942283 670.513859 924.171043 669.322941 911.600914 668.823674 C889.318138 667.938664 866.974876 668.560978 844.656944 668.588932 C840.700889 668.593815 834.718468 667.274357 833.270042 669.230656 C831.162620 672.076847 832.321983 677.341740 832.088402 683.575383 M899.088402 638.575505 C903.472313 637.908879 907.851707 636.710270 912.240928 636.673161 C926.502952 636.552555 939.305443 632.393864 951.260277 624.657292 C960.986595 618.362614 967.409935 609.710026 972.124779 599.392643 C975.981224 590.953923 976.302513 582.123967 976.147728 573.071476 C975.822044 554.034001 966.818870 539.896916 952.216331 528.541569 C938.570091 517.929753 922.150230 515.793888 906.044700 514.898625 C883.147972 513.625676 860.125877 514.723088 837.161644 514.452458 C832.492210 514.397526 832.009178 516.208561 832.020958 520.075505 C832.133751 557.022892 832.056907 593.970646 832.116112 630.918400 C832.127342 637.903386 832.851219 638.533024 840.169029 638.555607 C859.141990 638.614445 878.115257 638.575383 899.088402 638.575505 z"/><path class="selected"  fill="#000000" opacity="1.000000" stroke="none" 
 	d="
M1258.088402 484.575383 C1277.448021 486.743473 1293.860008 493.911076 1308.859398 504.405217 C1326.258079 516.578068 1335.943016 534.278263 1339.579246 554.359806 C1341.497215 564.951725 1342.991844 576.011784 1340.775291 587.737370 C1338.350242 600.565861 1335.557762 612.837468 1329.383568 624.159245 C1317.999412 645.034367 1299.713035 657.470646 1277.503929 664.478093 C1271.257957 666.448796 1264.677025 667.469426 1258.183128 668.510319 C1251.876732 669.521183 1250.905784 670.861027 1254.122825 676.377873 C1259.612083 685.790959 1265.312767 695.080754 1270.932396 704.417546 C1277.998070 716.156926 1284.993431 727.939640 1292.159813 739.617253 C1302.930443 757.167912 1313.933494 774.576481 1324.629906 792.171818 C1333.516502 806.790348 1342.116844 821.582951 1350.794578 836.327580 C1351.387596 837.335392 1351.567406 838.586491 1351.939354 839.724430 C1350.723656 840.008122 1349.284813 840.862370 1348.326561 840.487614 C1338.104515 836.489201 1327.489281 838.772648 1317.125145 838.837712 C1309.897362 838.883122 1306.019798 836.382145 1302.616478 830.312809 C1295.761497 818.087712 1288.022606 806.361760 1280.865379 794.301213 C1273.415550 781.747624 1266.308494 768.990910 1258.892479 756.416935 C1250.984398 743.008976 1242.782005 729.774357 1234.909447 716.345890 C1227.689232 704.030583 1220.754783 691.547917 1213.657371 679.160344 C1211.432152 675.276432 1208.503441 672.519963 1203.565330 672.545475 C1187.900535 672.626408 1172.233787 672.689152 1156.570579 672.513127 C1151.175316 672.452458 1149.890281 675.043278 1150.021629 679.851994 C1150.258079 688.511418 1150.088402 697.181950 1150.088402 705.847844 C1150.088402 747.843937 1150.097801 789.840031 1150.078514 831.836125 C1150.075462 838.509343 1150.011009 838.375187 1143.244285 838.609318 C1134.753441 838.902897 1126.258812 839.843327 1117.794578 839.580143 C1115.832786 839.519108 1113.549949 835.951970 1112.245750 833.547551 C1111.407615 832.002385 1112.088402 829.633244 1112.088402 827.633488 C1112.088402 716.310490 1112.088402 604.987492 1112.088402 493.664494 C1112.088402 491.664616 1111.920921 489.647892 1112.121116 487.668278 C1112.625511 482.678654 1114.855491 480.593327 1119.754906 480.589787 C1157.084740 480.563420 1194.414940 480.509343 1231.744163 480.663395 C1236.136986 480.681584 1240.536888 481.838200 1244.911278 482.595890 C1248.964134 483.298039 1253.580833 480.558903 1258.088402 484.575383 M1150.088402 537.575383 C1150.088402 569.187809 1150.130028 600.800358 1150.036156 632.412541 C1150.024315 636.393132 1149.710106 638.866398 1155.495872 638.768986 C1181.776634 638.326725 1208.102073 639.340153 1234.341575 638.210514 C1245.310936 637.738224 1256.481346 634.229069 1266.873924 630.289860 C1276.700706 626.565129 1286.179466 620.466130 1291.829490 611.451115 C1301.321434 596.305973 1304.146507 578.832829 1299.731712 561.765324 C1294.742454 542.476017 1281.907982 529.437565 1262.424705 522.240300 C1249.687401 517.535221 1236.590111 515.842350 1223.659447 514.983097 C1201.462425 513.508122 1179.095970 514.648869 1156.801658 514.520085 C1151.688011 514.490544 1149.773216 516.636052 1150.035911 521.602116 C1150.281639 526.247746 1150.088402 530.916691 1150.088402 537.575383 z"/><path class="selected"  fill="#000000" opacity="1.000000" stroke="none" 
 	d="
M2028.088402 544.575383 C2028.088402 639.196598 2028.088402 732.817814 2028.088402 826.439030 C2028.088402 827.438542 2028.095726 828.438176 2028.087181 829.437565 C2028.009300 838.514347 2028.008568 838.526921 2018.477073 838.570622 C2012.813255 838.596623 2007.147484 838.490422 2001.486107 838.608464 C1998.266136 838.675602 1992.731224 840.151677 1992.257103 839.129704 C1990.593040 835.541203 1990.173851 831.145939 1990.164085 827.054875 C1990.046898 777.745671 1990.091331 728.436222 1990.085716 679.126774 C1990.084984 670.602116 1990.068626 670.579899 1982.061790 670.579045 C1922.757225 670.572453 1863.452781 670.572453 1804.148216 670.579045 C1796.108909 670.579899 1796.092186 670.601994 1796.091209 679.093571 C1796.085594 729.069279 1796.089134 779.045109 1796.087913 829.020817 C1796.087791 838.575383 1796.068260 838.227848 1786.071556 838.687443 C1778.347435 839.042546 1770.402855 836.620060 1762.795189 840.348332 C1762.018699 840.728947 1759.101829 838.246281 1758.259788 836.554020 C1757.462547 834.951970 1758.088402 832.641423 1758.088402 830.642399 C1758.088402 718.030339 1758.088402 605.418400 1758.088402 492.806340 C1758.088402 490.807316 1757.611473 488.656071 1758.190697 486.841984 C1759.294334 483.385441 1760.433372 480.055241 1765.616234 480.438908 C1772.905906 480.978703 1780.266136 480.524357 1787.595238 480.589054 C1795.801903 480.661564 1796.022117 480.843815 1796.069847 488.832585 C1796.141380 500.826237 1796.088402 512.820866 1796.088402 524.815007 C1796.088402 559.131657 1796.067283 593.448307 1796.103172 627.764958 C1796.112205 636.484929 1796.195335 636.559758 1805.027611 636.563298 C1863.665794 636.586735 1922.303978 636.585514 1980.942161 636.564640 C1990.027122 636.561345 1990.076195 636.495793 1990.080101 626.972477 C1990.098900 581.994328 1990.088402 537.016056 1990.088402 492.037907 C1990.088402 489.705754 1989.537132 487.182927 1990.257103 485.099675 C1990.869163 483.328556 1992.897728 480.834782 1994.384544 480.774968 C2004.030784 480.385929 2013.704368 480.414372 2023.360618 480.649113 C2027.623070 480.752751 2028.169945 483.980534 2028.132835 487.602360 C2028.013450 499.262150 2028.088402 510.923771 2028.088402 522.584782 C2028.088402 529.581608 2028.088402 536.578556 2028.088402 544.575383 z"/><path class="selected"  fill="#000000" opacity="1.000000" stroke="none" 
 	d="
M1104.088402 234.575383 C1104.088402 224.577702 1103.925926 215.576420 1104.122215 206.583012 C1104.532127 187.802983 1109.604271 170.036320 1116.063499 152.558598 C1125.590111 126.780461 1141.648338 105.512089 1162.159813 87.760991 C1178.538109 73.586918 1197.653709 63.873539 1218.107323 56.423649 C1243.813499 47.060795 1270.447410 47.190129 1296.794823 49.045964 C1317.467186 50.502079 1337.823265 56.680119 1356.273338 66.725590 C1375.692039 77.298405 1393.113426 90.322575 1407.184349 108.094792 C1416.095115 119.349369 1423.606590 131.182072 1429.934471 143.794926 C1435.763328 155.413090 1438.968284 168.085881 1442.174095 180.714665 C1446.979027 199.642521 1447.627586 219.034001 1445.696800 238.024784 C1442.978294 264.763554 1435.834007 290.415959 1420.584862 313.548039 C1412.411156 325.946965 1404.417015 338.315373 1393.347557 348.118718 C1372.730247 366.377629 1349.335716 379.324894 1322.452659 386.943303 C1299.993065 393.308171 1277.439720 393.347111 1254.870872 392.195988 C1238.786522 391.375554 1223.017357 386.604435 1207.816673 380.622502 C1184.954368 371.625554 1165.200096 358.022770 1148.733665 339.999211 C1136.623070 326.743229 1126.430565 312.267887 1119.167747 295.324894 C1113.873924 282.975041 1110.438255 270.231694 1106.471702 257.614140 C1104.298485 250.701359 1104.795433 242.949101 1104.088402 234.575383 M1188.088402 109.575383 C1172.510399 123.686955 1160.016868 140.068364 1152.136741 159.649662 C1145.047752 177.265202 1140.783348 195.644535 1140.249901 214.629948 C1139.986961 223.988835 1141.299949 233.406254 1142.133690 242.776371 C1142.641380 248.482914 1142.579124 254.532414 1144.549095 259.758366 C1149.320579 272.416264 1152.720848 285.660466 1160.046898 297.315251 C1169.713035 312.693180 1180.884666 326.578068 1195.771385 337.337468 C1219.547142 354.521183 1246.309227 362.046086 1275.281883 362.470402 C1280.325096 362.544255 1285.372581 360.854679 1290.445579 360.644841 C1309.028587 359.876286 1325.791527 353.993840 1341.867943 344.724186 C1360.516868 333.970890 1374.917991 319.810246 1386.654808 301.555851 C1401.413719 278.600773 1406.971824 253.424443 1409.922508 227.215580 C1410.744285 219.915898 1409.370018 212.460881 1408.479149 205.029057 C1406.743065 190.544499 1403.849754 176.820256 1398.390648 163.123783 C1389.489525 140.791203 1376.734764 122.216618 1357.875511 106.970707 C1334.200706 87.831913 1307.126488 80.025273 1277.597923 78.723332 C1270.255394 78.399479 1262.843529 80.111760 1255.443504 80.531681 C1241.466698 81.325077 1228.705345 86.108708 1216.008812 91.533268 C1206.056663 95.785221 1197.896019 102.640202 1188.088402 109.575383 z"/><path class="selected"  fill="#000000" opacity="1.000000" stroke="none" 
 	d="
M2020.088402 244.575383 C2020.262230 258.429631 2015.770042 270.356205 2011.377708 281.958622 C2003.831566 301.890812 1992.009544 319.569889 1976.884300 334.572575 C1956.718284 354.575016 1932.395897 368.076725 1905.349144 376.474308 C1895.464012 379.543522 1885.300926 381.459172 1874.909447 382.803288 C1846.198753 386.517155 1817.451927 383.638493 1788.743309 384.498600 C1774.096092 384.937443 1759.420921 384.389225 1744.766868 384.693058 C1740.578758 384.779972 1739.990745 383.349308 1740.010643 379.669133 C1740.155540 353.014592 1740.088402 326.359074 1740.088402 299.703801 C1740.088402 222.070378 1740.088402 144.437016 1740.088402 66.803593 C1740.088402 65.137638 1740.293724 63.440800 1740.048851 61.811711 C1739.390526 57.433842 1741.302879 56.473698 1745.439842 56.488530 C1785.755272 56.632878 1826.095970 55.753971 1866.376854 56.944828 C1884.698387 57.486515 1902.759544 62.706059 1919.994163 69.536992 C1942.615745 78.503239 1962.806175 91.470585 1979.426048 109.220768 C1988.442650 118.850712 1996.138206 129.627385 2002.501243 141.525517 C2008.410911 152.576115 2013.257835 163.757023 2016.345726 175.812626 C2017.499779 180.316899 2019.639915 184.720951 2019.942406 189.263127 C2020.987816 204.954899 2021.517357 220.684575 2021.985618 236.407475 C2022.056419 238.775822 2020.755150 241.185063 2020.088402 244.575383 M1870.088402 89.575383 C1865.229271 89.242070 1860.357567 89.032719 1855.514427 88.541386 C1850.444847 88.027043 1845.408836 86.727971 1840.347313 86.666996 C1821.360740 86.438359 1802.364891 86.828007 1783.382591 86.461247 C1774.789451 86.295292 1773.969383 88.345158 1773.984764 96.031498 C1774.150780 178.984745 1774.082908 261.938359 1774.096092 344.891911 C1774.097557 354.540715 1774.147850 354.689762 1784.151756 354.545597 C1807.537132 354.208317 1830.916527 355.310002 1854.311424 352.834416 C1866.675316 351.526188 1878.814720 350.019230 1890.792869 346.632023 C1925.360985 336.856877 1952.169700 316.596745 1969.715843 285.534977 C1981.641136 264.423466 1985.783714 240.576481 1985.868919 216.398259 C1985.899925 207.627262 1983.730247 198.786992 1982.026146 190.083805 C1978.063255 169.843449 1969.622581 151.491948 1956.189720 135.885807 C1943.980125 121.700627 1929.427391 110.264531 1912.119896 102.513310 C1898.957908 96.618779 1885.888695 90.706120 1870.088402 89.575383 z"/><path class="selected"  fill="#000000" opacity="1.000000" stroke="none" 
 	d="
M1443.588402 813.075383 C1429.261131 797.202580 1419.822532 779.407292 1414.134788 759.608097 C1412.499779 753.916935 1410.944847 748.126530 1410.200950 742.273869 C1409.099632 733.609929 1408.815819 724.844548 1408.062523 716.132878 C1407.687156 711.791569 1406.609886 707.471012 1406.633568 703.145329 C1406.660301 698.247868 1408.012718 693.356022 1408.020531 688.460392 C1408.122581 624.493840 1408.088524 560.527043 1408.088157 496.560368 C1408.088035 494.229313 1408.869530 491.461003 1407.878685 489.679509 C1406.676170 487.517643 1404.793602 485.991887 1407.657249 484.075993 C1409.701317 482.708439 1411.959984 480.847844 1414.200462 480.733830 C1422.175682 480.328068 1430.184715 480.632389 1438.179710 480.551701 C1442.251854 480.510563 1444.246605 482.290348 1444.100609 486.419499 C1444.030052 488.415959 1444.088402 490.416935 1444.088402 492.415959 C1444.088402 565.711125 1443.828148 639.007756 1444.242210 712.300602 C1444.371483 735.170964 1449.913109 757.223088 1462.253319 776.703556 C1473.057152 793.758244 1489.242210 804.677922 1508.481468 810.464909 C1524.001488 815.132878 1539.685081 815.706120 1555.995506 812.918400 C1572.600853 810.080387 1587.163841 803.616887 1599.894188 793.410588 C1609.858543 785.421940 1617.249046 774.575505 1621.906517 762.686222 C1629.260643 743.913029 1632.366844 724.309391 1632.247703 703.931462 C1631.834617 633.304020 1632.088402 562.672673 1632.088402 492.042790 C1632.088402 489.710637 1631.537742 487.188542 1632.256859 485.104557 C1632.868309 483.332585 1634.893944 480.835026 1636.379173 480.775090 C1646.025047 480.385807 1655.705589 480.340519 1665.345238 480.800969 C1666.998924 480.879948 1669.015281 483.688908 1669.932396 485.668400 C1670.694969 487.314030 1670.088402 489.594059 1670.088402 491.592961 C1670.088402 562.222844 1670.590721 632.858342 1669.809715 703.479557 C1669.544090 727.496647 1667.068504 751.809391 1657.885277 774.389958 C1650.041160 793.678166 1638.696922 810.882267 1620.854027 822.870182 C1615.594139 826.404240 1610.971458 831.006535 1605.454002 834.013371 C1592.480491 841.083561 1578.366478 844.490544 1563.739036 846.828923 C1551.296165 848.817936 1538.912376 848.981633 1526.555321 848.395451 C1508.943504 847.560124 1491.529930 844.269963 1475.639549 836.387516 C1463.996483 830.611760 1453.292137 822.995915 1443.588402 813.075383 z"/><path class="selected"  fill="#000000" opacity="1.000000" stroke="none" 
 	d="
M814.088402 216.575383 C814.961082 243.968693 819.333824 269.671513 832.221275 293.015446 C844.372398 315.025578 860.356956 333.290471 883.377708 345.406559 C896.207237 352.158757 909.467247 358.095402 923.203941 359.924992 C936.580955 361.706730 950.207664 363.963810 964.572899 361.256779 C979.229759 358.494694 993.124412 354.907414 1006.452415 348.566594 C1019.448753 342.383610 1028.725975 331.681584 1037.905784 321.246281 C1044.699364 313.523625 1043.873558 312.969548 1051.422264 318.846745 C1056.663109 322.927067 1061.813255 327.351872 1067.654075 330.360905 C1072.286644 332.747502 1070.303245 334.798405 1068.603538 336.981877 C1047.425804 364.185490 1019.606834 380.436100 986.279686 388.834172 C966.491722 393.820500 946.532493 393.832463 926.934715 392.110905 C897.086571 389.488835 869.559837 377.836369 845.432213 360.235051 C832.987449 351.156559 821.897667 339.497258 812.390159 327.294255 C799.807274 311.143742 790.293236 292.832585 785.272545 272.672795 C783.150719 264.152897 782.290306 255.306218 779.969322 246.851689 C776.672264 234.841740 777.676475 222.653996 778.307274 210.672673 C779.857323 181.232609 787.234337 153.493229 803.198814 128.041142 C810.939171 115.700688 818.928795 103.797551 829.728844 94.186406 C838.509483 86.372380 847.941734 79.128422 857.787987 72.709965 C874.803612 61.618107 893.993675 55.099919 913.619835 50.834721 C931.997948 46.840825 951.124779 47.153935 969.672874 48.991154 C988.770042 50.882817 1007.030418 57.395573 1024.302757 66.446354 C1038.656883 73.967961 1049.909691 84.930485 1060.773338 96.463261 C1062.424827 98.216435 1064.072410 100.362919 1059.407493 102.921025 C1051.934959 107.018742 1045.535789 113.174870 1038.986961 118.813847 C1035.637230 121.698124 1033.358665 121.041447 1030.655174 118.197575 C1026.563499 113.893559 1022.293846 109.758000 1018.079857 105.571049 C1004.500999 92.079899 987.311180 85.020756 969.265037 81.234379 C956.965111 78.653569 944.269432 77.792424 931.031273 79.992131 C915.990440 82.491276 901.483909 85.832585 888.229454 92.790593 C872.440452 101.079167 858.517357 111.717595 846.938804 126.066655 C836.450767 139.064335 828.941734 153.179570 823.494469 168.466862 C819.624351 179.327702 816.130516 190.526310 815.989158 202.397038 C815.936790 206.796696 814.755150 211.182988 814.088402 216.575383 z"/><path class="selected"  fill="#000000" opacity="1.000000" stroke="none" 
 	d="
M1512.588402 374.075383 C1512.088402 317.294743 1512.015281 261.013859 1512.176903 204.733647 C1512.198143 197.348454 1514.674949 189.827702 1513.873924 182.607182 C1510.175560 149.264531 1512.905540 115.862431 1512.210472 82.503666 C1512.050072 74.804570 1513.328392 67.062870 1514.200828 59.369877 C1514.316307 58.349919 1515.935936 56.720524 1516.890770 56.697514 C1525.544334 56.489079 1534.204979 56.550785 1542.863426 56.587162 C1546.460960 56.602299 1548.237816 58.426518 1548.104149 62.099980 C1548.019432 64.428044 1548.088402 66.761723 1548.088402 69.092839 C1548.088402 160.007756 1548.088402 250.922673 1548.088402 341.837590 C1548.088402 343.169621 1548.073875 344.502018 1548.090721 345.833805 C1548.200340 354.492863 1548.202659 354.559269 1557.089256 354.564152 C1601.381126 354.588688 1645.672996 354.575383 1689.964866 354.575383 C1692.296043 354.575383 1694.646995 354.766667 1696.953270 354.527043 C1699.837181 354.227482 1700.159202 355.677555 1700.126243 358.025944 C1700.023338 365.351139 1699.752342 372.699650 1700.213035 379.997136 C1700.493675 384.440007 1698.545677 384.659001 1695.081199 384.635075 C1676.765892 384.507878 1658.449119 384.575383 1640.132957 384.575383 C1600.836448 384.575383 1561.539818 384.579411 1522.243309 384.572087 C1514.481102 384.570744 1514.509666 384.549015 1514.050560 377.160832 C1513.995872 376.282414 1513.421776 375.436467 1512.588402 374.075383 z"/></svg>