<svg width="200" height="201" viewBox="0 0 200 201" fill="none" xmlns="http://www.w3.org/2000/svg">
<g clip-path="url(#clip0_418_42)">
<path fill-rule="evenodd" clip-rule="evenodd" d="M115.96 0.956039C117.332 1.54471 118.467 2.57691 119.182 3.88724C119.898 5.19756 120.153 6.71018 119.907 8.18271L107.867 80.4227H166.667C167.905 80.4227 169.118 80.7675 170.172 81.4184C171.225 82.0693 172.076 83.0006 172.63 84.108C173.183 85.2153 173.418 86.455 173.306 87.6881C173.195 88.9212 172.743 90.0989 172 91.0894L92 197.756C91.1035 198.949 89.8328 199.807 88.3912 200.192C86.9496 200.577 85.4205 200.467 84.0486 199.88C82.6767 199.293 81.5414 198.263 80.8243 196.955C80.1072 195.646 79.8498 194.135 80.0933 192.663L92.1333 120.423H33.3333C32.0953 120.423 30.8816 120.078 29.8285 119.427C28.7753 118.776 27.9242 117.845 27.3705 116.737C26.8168 115.63 26.5824 114.39 26.6936 113.157C26.8048 111.924 27.2572 110.747 28 109.756L108 3.08937C108.896 1.89304 110.167 1.03235 111.611 0.64547C113.054 0.258593 114.586 0.367968 115.96 0.956039ZM46.6667 107.089H100C100.968 107.09 101.924 107.301 102.802 107.708C103.68 108.115 104.458 108.709 105.084 109.447C105.709 110.185 106.167 111.051 106.424 111.984C106.681 112.917 106.732 113.895 106.573 114.849L97.7333 167.889L153.333 93.7561H100C99.0323 93.7556 98.0762 93.5445 97.1983 93.1373C96.3204 92.7302 95.5416 92.1368 94.9161 91.3984C94.2906 90.66 93.8334 89.7943 93.5762 88.8613C93.319 87.9284 93.268 86.9507 93.4267 85.9961L102.267 32.956L46.6667 107.089Z" fill="white"/>
</g>
<defs>
<clipPath id="clip0_418_42">
<rect width="200" height="200" fill="white" transform="translate(0 0.422607)"/>
</clipPath>
</defs>
</svg>
